<?xml version="1.0" encoding="UTF-8" ?>
<!DOCTYPE svg PUBLIC "-//W3C//DTD SVG 1.1//EN" "http://www.w3.org/Graphics/SVG/1.1/DTD/svg11.dtd">
<svg width="626pt" height="626pt" viewBox="0 0 626 626" version="1.1" xmlns="http://www.w3.org/2000/svg">
<g id="#ffffffff">
</g>
<g id="#3e3a38ff">
<path fill="#3e3a38" opacity="1.00" d=" M 301.93 182.92 C 313.05 172.69 329.17 167.91 344.06 170.75 C 354.34 172.29 363.66 177.79 371.08 184.93 C 380.87 194.91 386.21 209.07 385.44 223.04 C 385.17 228.44 383.33 233.59 382.27 238.85 C 387.02 240.92 392.09 242.23 396.89 244.21 C 409.35 249.51 421.40 256.33 431.06 265.93 C 435.13 269.87 439.14 273.91 442.67 278.35 C 444.90 281.07 447.99 283.95 451.76 283.66 C 456.60 282.07 456.09 275.50 460.46 273.33 C 462.50 272.14 464.93 273.09 466.82 274.12 C 471.20 277.24 472.52 282.77 474.43 287.49 C 479.03 299.95 478.09 314.93 469.61 325.54 C 467.73 328.67 464.37 330.45 462.19 333.23 C 462.30 346.67 461.33 360.30 457.37 373.21 C 451.74 394.58 439.36 414.22 421.80 427.77 C 417.19 430.89 414.47 435.92 413.89 441.41 C 420.94 442.14 427.83 443.81 434.73 445.32 C 439.94 446.71 445.26 448.22 449.83 451.14 C 451.47 452.05 451.93 453.91 452.40 455.59 C 441.42 463.71 427.25 464.67 414.29 467.32 C 399.60 469.36 384.80 470.52 370.02 471.78 C 357.00 471.95 344.03 473.32 331.00 473.03 C 302.98 473.51 274.94 472.66 247.02 470.16 C 228.19 468.11 208.99 466.45 191.08 459.86 C 188.38 458.47 183.85 456.99 184.72 453.15 C 187.90 449.39 192.97 448.19 197.40 446.54 C 205.66 444.20 214.13 442.58 222.61 441.33 C 224.02 441.22 224.46 439.53 223.59 438.54 C 221.76 434.49 217.84 431.93 214.02 429.95 C 203.09 424.59 193.42 416.64 186.17 406.84 C 182.46 402.25 180.18 396.76 177.39 391.60 C 175.64 388.23 171.71 387.19 168.62 385.45 C 162.40 382.23 155.38 379.77 150.69 374.33 C 148.38 371.76 148.85 368.18 148.83 365.01 C 148.94 356.67 148.74 348.34 148.91 340.01 C 148.94 337.57 151.32 336.23 153.01 334.91 C 158.06 331.50 163.82 328.24 166.42 322.42 C 169.11 316.70 171.62 310.90 174.23 305.15 C 182.40 288.07 193.54 271.37 210.29 261.73 C 208.54 253.76 203.95 246.90 200.18 239.80 C 197.32 234.61 196.51 227.46 200.65 222.72 C 202.71 219.24 206.63 217.73 210.27 216.53 C 219.05 214.22 227.98 217.08 236.24 219.96 C 248.67 224.50 260.68 231.04 269.97 240.61 C 275.91 239.31 281.85 237.98 287.81 236.72 C 286.83 231.51 285.25 226.36 285.36 221.01 C 285.06 206.71 291.20 192.40 301.93 182.92 M 316.25 186.22 C 304.62 192.72 296.60 205.58 296.53 218.99 C 296.57 224.32 296.81 230.18 299.99 234.68 C 300.84 238.17 302.49 241.42 304.87 244.12 C 308.78 248.67 313.35 252.90 318.91 255.32 C 326.82 255.65 334.76 255.86 342.67 255.57 C 345.27 256.17 348.12 257.06 350.68 255.79 C 363.23 250.59 372.49 238.31 374.00 224.80 C 376.43 208.11 366.26 190.63 350.66 184.29 C 339.80 179.50 326.50 180.13 316.25 186.22 M 210.75 229.11 L 211.05 229.62 L 210.19 229.82 C 208.57 231.04 210.68 233.45 211.01 235.05 C 215.87 244.23 221.56 253.44 222.62 264.01 C 222.61 265.75 223.09 268.19 220.98 268.90 C 215.25 272.01 209.33 274.99 204.68 279.68 C 191.52 292.17 185.31 309.63 177.57 325.58 C 174.15 332.86 168.54 338.88 161.85 343.27 L 161.22 343.23 C 161.57 351.56 160.60 360.03 161.73 368.27 C 168.41 373.29 176.85 375.44 183.49 380.56 C 187.26 384.05 188.96 389.07 191.51 393.41 C 195.36 400.85 201.23 407.01 207.68 412.26 C 212.44 416.11 218.02 418.70 223.29 421.76 C 229.16 425.15 233.59 430.80 235.74 437.21 C 237.21 441.15 237.93 445.37 239.82 449.16 C 243.78 450.22 247.95 449.61 252.00 449.73 C 262.12 449.45 272.29 450.23 282.37 449.38 C 284.74 446.09 285.27 441.89 287.43 438.48 C 288.53 436.53 291.12 437.47 292.94 437.23 C 310.75 437.96 328.70 437.51 346.27 434.25 C 348.46 433.97 351.29 433.00 352.89 435.15 C 355.63 439.52 355.41 445.25 358.58 449.40 C 361.02 449.87 363.52 449.75 365.99 449.76 C 377.01 449.65 388.04 449.79 399.06 449.69 C 401.82 443.10 402.19 435.75 405.32 429.31 C 407.36 424.94 411.14 421.82 414.58 418.59 C 420.17 413.53 426.07 408.68 430.46 402.49 C 443.25 385.12 449.98 363.56 450.31 342.07 C 448.19 342.42 446.07 342.79 443.95 343.16 C 441.88 341.83 439.82 340.34 438.53 338.20 C 438.98 336.41 439.16 334.51 440.01 332.84 C 442.15 330.50 445.23 329.40 447.93 327.86 C 453.75 324.72 459.78 320.91 462.67 314.69 C 466.41 307.67 466.13 299.20 463.39 291.90 C 463.40 291.40 463.43 290.41 463.44 289.91 C 459.79 293.59 455.61 297.66 450.00 297.43 C 441.83 297.70 436.64 290.47 432.37 284.56 C 418.73 266.81 398.15 255.04 376.52 250.07 C 373.85 253.32 370.94 256.36 367.91 259.27 C 372.12 260.15 376.67 261.29 379.27 265.05 C 378.38 267.55 378.08 270.85 375.44 272.20 C 370.36 274.00 365.05 272.09 359.97 271.34 C 339.44 267.95 318.35 267.76 297.82 271.17 C 294.56 271.64 290.81 272.18 288.09 269.86 C 285.81 268.40 286.10 265.35 285.50 263.03 C 289.23 258.68 295.19 258.47 300.40 257.38 C 297.83 254.28 295.24 251.20 292.79 248.01 C 284.70 248.99 276.74 250.88 268.99 253.40 C 266.93 252.91 264.86 252.20 263.43 250.55 C 252.11 238.77 236.87 231.14 220.98 227.82 C 217.71 227.60 213.13 226.40 210.75 229.11 Z" />
</g>
<g id="#f29101ff">
<path fill="#f29101" opacity="1.00" d=" M 316.25 186.22 C 326.50 180.13 339.80 179.50 350.66 184.29 C 366.26 190.63 376.43 208.11 374.00 224.80 C 372.05 230.07 368.71 234.81 364.23 238.23 C 357.56 243.50 350.22 247.85 343.15 252.56 C 344.06 253.42 344.98 254.29 345.89 255.17 C 344.81 255.31 343.74 255.44 342.67 255.57 C 334.76 255.86 326.82 255.65 318.91 255.32 C 321.79 254.67 324.61 253.81 327.43 252.97 C 318.58 246.41 308.18 242.18 299.99 234.68 C 296.81 230.18 296.57 224.32 296.53 218.99 C 296.60 205.58 304.62 192.72 316.25 186.22 M 323.09 195.11 C 320.70 196.96 320.89 200.32 320.55 203.02 C 319.80 213.69 318.54 224.33 317.91 235.01 C 317.48 240.50 325.57 243.08 328.64 238.64 C 330.80 234.76 329.93 230.01 330.45 225.75 C 333.78 230.09 336.66 234.76 339.74 239.28 C 340.96 241.13 342.67 242.95 345.05 243.02 C 349.37 243.54 353.09 238.23 350.72 234.44 C 348.37 230.63 345.31 227.32 342.75 223.65 C 346.69 222.05 350.97 219.87 352.51 215.59 C 354.44 210.06 353.73 202.95 349.00 199.00 C 344.40 194.93 337.90 195.03 332.15 194.42 C 329.16 194.27 325.77 193.29 323.09 195.11 Z" />
</g>
<g id="#3d3c3aff">
<path fill="#3d3c3a" opacity="1.00" d=" M 323.09 195.11 C 325.77 193.29 329.16 194.27 332.15 194.42 C 337.90 195.03 344.40 194.93 349.00 199.00 C 353.73 202.95 354.44 210.06 352.51 215.59 C 350.97 219.87 346.69 222.05 342.75 223.65 C 345.31 227.32 348.37 230.63 350.72 234.44 C 353.09 238.23 349.37 243.54 345.05 243.02 C 342.67 242.95 340.96 241.13 339.74 239.28 C 336.66 234.76 333.78 230.09 330.45 225.75 C 329.93 230.01 330.80 234.76 328.64 238.64 C 325.57 243.08 317.48 240.50 317.91 235.01 C 318.54 224.33 319.80 213.69 320.55 203.02 C 320.89 200.32 320.70 196.96 323.09 195.11 M 332.24 205.84 C 332.13 208.52 332.06 211.21 332.06 213.90 C 334.29 213.95 336.54 214.15 338.76 213.82 C 341.33 213.09 341.43 209.67 340.46 207.65 C 338.20 205.75 334.97 206.23 332.24 205.84 Z" />
</g>
<g id="#f49101ff">
<path fill="#f49101" opacity="1.00" d=" M 332.24 205.84 C 334.97 206.23 338.20 205.75 340.46 207.65 C 341.43 209.67 341.33 213.09 338.76 213.82 C 336.54 214.15 334.29 213.95 332.06 213.90 C 332.06 211.21 332.13 208.52 332.24 205.84 Z" />
</g>
<g id="#dc7f05ff">
<path fill="#dc7f05" opacity="1.00" d=" M 364.23 238.23 C 368.71 234.81 372.05 230.07 374.00 224.80 C 372.49 238.31 363.23 250.59 350.68 255.79 C 348.12 257.06 345.27 256.17 342.67 255.57 C 343.74 255.44 344.81 255.31 345.89 255.17 C 344.98 254.29 344.06 253.42 343.15 252.56 C 350.22 247.85 357.56 243.50 364.23 238.23 Z" />
</g>
<g id="#ea5b9dff">
<path fill="#ea5b9d" opacity="1.00" d=" M 210.75 229.11 C 213.13 226.40 217.71 227.60 220.98 227.82 C 236.87 231.14 252.11 238.77 263.43 250.55 C 264.86 252.20 266.93 252.91 268.99 253.40 C 264.94 254.58 260.92 256.06 256.69 256.40 C 253.49 256.58 251.32 253.75 249.14 251.85 C 238.78 241.24 226.03 231.96 211.05 229.62 L 210.75 229.11 Z" />
<path fill="#ea5b9d" opacity="1.00" d=" M 463.39 291.90 C 466.13 299.20 466.41 307.67 462.67 314.69 C 459.78 320.91 453.75 324.72 447.93 327.86 C 445.23 329.40 442.15 330.50 440.01 332.84 C 439.16 334.51 438.98 336.41 438.53 338.20 C 437.60 333.52 437.32 328.22 440.08 324.07 C 443.26 319.57 448.25 316.91 452.27 313.26 C 458.53 307.96 463.67 300.42 463.39 291.90 Z" />
<path fill="#ea5b9d" opacity="1.00" d=" M 443.95 343.16 C 446.07 342.79 448.19 342.42 450.31 342.07 C 449.98 363.56 443.25 385.12 430.46 402.49 C 426.07 408.68 420.17 413.53 414.58 418.59 C 411.14 421.82 407.36 424.94 405.32 429.31 C 402.19 435.75 401.82 443.10 399.06 449.69 C 388.04 449.79 377.01 449.65 365.99 449.76 C 363.52 449.75 361.02 449.87 358.58 449.40 C 355.41 445.25 355.63 439.52 352.89 435.15 C 351.29 433.00 348.46 433.97 346.27 434.25 C 328.70 437.51 310.75 437.96 292.94 437.23 C 291.12 437.47 288.53 436.53 287.43 438.48 C 285.27 441.89 284.74 446.09 282.37 449.38 C 272.29 450.23 262.12 449.45 252.00 449.73 C 247.95 449.61 243.78 450.22 239.82 449.16 C 237.93 445.37 237.21 441.15 235.74 437.21 C 233.59 430.80 229.16 425.15 223.29 421.76 C 218.02 418.70 212.44 416.11 207.68 412.26 C 201.23 407.01 195.36 400.85 191.51 393.41 C 188.96 389.07 187.26 384.05 183.49 380.56 C 176.85 375.44 168.41 373.29 161.73 368.27 C 160.60 360.03 161.57 351.56 161.22 343.23 L 161.85 343.27 C 161.67 347.20 161.36 351.15 161.65 355.09 C 161.83 356.68 161.88 358.61 163.40 359.57 C 169.57 364.19 177.12 366.40 183.66 370.38 C 188.70 373.56 191.93 378.76 196.41 382.60 C 217.08 401.17 244.13 410.94 271.08 415.98 C 305.50 422.33 341.52 421.15 375.12 411.11 C 390.46 406.49 405.20 399.62 418.18 390.19 C 433.05 379.40 442.67 362.32 445.79 344.35 C 445.33 344.05 444.41 343.45 443.95 343.16 Z" />
</g>
<g id="#ee7eaeff">
<path fill="#ee7eae" opacity="1.00" d=" M 210.19 229.82 L 211.05 229.62 C 226.03 231.96 238.78 241.24 249.14 251.85 C 251.32 253.75 253.49 256.58 256.69 256.40 C 260.92 256.06 264.94 254.58 268.99 253.40 C 276.74 250.88 284.70 248.99 292.79 248.01 C 295.24 251.20 297.83 254.28 300.40 257.38 C 295.19 258.47 289.23 258.68 285.50 263.03 C 285.03 266.55 284.79 270.75 287.60 273.42 C 290.68 276.59 295.50 275.80 299.46 275.43 C 317.82 272.79 336.68 271.55 355.02 275.02 C 361.01 276.10 366.87 278.24 373.03 278.25 C 375.67 278.30 378.58 277.35 379.95 274.92 C 381.87 271.84 380.57 268.09 379.27 265.05 C 376.67 261.29 372.12 260.15 367.91 259.27 C 370.94 256.36 373.85 253.32 376.52 250.07 C 398.15 255.04 418.73 266.81 432.37 284.56 C 436.64 290.47 441.83 297.70 450.00 297.43 C 455.61 297.66 459.79 293.59 463.44 289.91 C 463.43 290.41 463.40 291.40 463.39 291.90 C 463.67 300.42 458.53 307.96 452.27 313.26 C 448.25 316.91 443.26 319.57 440.08 324.07 C 437.32 328.22 437.60 333.52 438.53 338.20 C 439.82 340.34 441.88 341.83 443.95 343.16 C 444.41 343.45 445.33 344.05 445.79 344.35 C 442.67 362.32 433.05 379.40 418.18 390.19 C 405.20 399.62 390.46 406.49 375.12 411.11 C 341.52 421.15 305.50 422.33 271.08 415.98 C 244.13 410.94 217.08 401.17 196.41 382.60 C 191.93 378.76 188.70 373.56 183.66 370.38 C 177.12 366.40 169.57 364.19 163.40 359.57 C 161.88 358.61 161.83 356.68 161.65 355.09 C 161.36 351.15 161.67 347.20 161.85 343.27 C 168.54 338.88 174.15 332.86 177.57 325.58 C 185.31 309.63 191.52 292.17 204.68 279.68 C 209.33 274.99 215.25 272.01 220.98 268.90 C 223.09 268.19 222.61 265.75 222.62 264.01 C 221.56 253.44 215.87 244.23 211.01 235.05 C 210.68 233.45 208.57 231.04 210.19 229.82 M 199.82 308.88 C 194.76 311.84 192.99 319.04 195.94 324.07 C 197.38 326.76 200.02 328.50 202.66 329.87 L 201.71 329.94 C 204.85 331.39 208.46 332.32 211.83 331.01 C 220.43 328.38 223.21 315.51 216.38 309.62 C 214.70 307.78 212.12 307.57 209.83 307.19 C 206.48 307.53 202.78 306.90 199.82 308.88 Z" />
</g>
<g id="#dd7f06ff">
<path fill="#dd7f06" opacity="1.00" d=" M 299.99 234.68 C 308.18 242.18 318.58 246.41 327.43 252.97 C 324.61 253.81 321.79 254.67 318.91 255.32 C 313.35 252.90 308.78 248.67 304.87 244.12 C 302.49 241.42 300.84 238.17 299.99 234.68 Z" />
</g>
<g id="#eb5c9dff">
<path fill="#eb5c9d" opacity="1.00" d=" M 287.60 273.42 C 284.79 270.75 285.03 266.55 285.50 263.03 C 286.10 265.35 285.81 268.40 288.09 269.86 C 290.81 272.18 294.56 271.64 297.82 271.17 C 318.35 267.76 339.44 267.95 359.97 271.34 C 365.05 272.09 370.36 274.00 375.44 272.20 C 378.08 270.85 378.38 267.55 379.27 265.05 C 380.57 268.09 381.87 271.84 379.95 274.92 C 378.58 277.35 375.67 278.30 373.03 278.25 C 366.87 278.24 361.01 276.10 355.02 275.02 C 336.68 271.55 317.82 272.79 299.46 275.43 C 295.50 275.80 290.68 276.59 287.60 273.42 Z" />
</g>
<g id="#3d3938ff">
<path fill="#3d3938" opacity="1.00" d=" M 199.82 308.88 C 202.78 306.90 206.48 307.53 209.83 307.19 C 212.17 309.47 214.99 311.56 216.23 314.70 C 217.60 318.95 216.60 324.12 213.04 327.03 C 210.24 329.59 206.22 329.62 202.66 329.87 C 200.02 328.50 197.38 326.76 195.94 324.07 C 192.99 319.04 194.76 311.84 199.82 308.88 Z" />
</g>
<g id="#ef5c9bff">
<path fill="#ef5c9b" opacity="1.00" d=" M 209.83 307.19 C 212.12 307.57 214.70 307.78 216.38 309.62 C 223.21 315.51 220.43 328.38 211.83 331.01 C 208.46 332.32 204.85 331.39 201.71 329.94 L 202.66 329.87 C 206.22 329.62 210.24 329.59 213.04 327.03 C 216.60 324.12 217.60 318.95 216.23 314.70 C 214.99 311.56 212.17 309.47 209.83 307.19 Z" />
</g>
</svg>
