<?xml version="1.0" encoding="UTF-8" ?>
<!DOCTYPE svg PUBLIC "-//W3C//DTD SVG 1.1//EN" "http://www.w3.org/Graphics/SVG/1.1/DTD/svg11.dtd">
<svg width="626pt" height="626pt" viewBox="0 0 626 626" version="1.1" xmlns="http://www.w3.org/2000/svg">
<g id="#ffffffff">
<path fill="#ffffff" opacity="1.00" d=" M 0.00 0.00 L 626.00 0.00 L 626.00 626.00 L 0.00 626.00 L 0.00 0.00 M 317.07 173.17 C 305.05 177.74 295.02 187.23 289.70 198.93 C 284.16 210.53 283.84 224.17 287.59 236.35 C 282.03 237.85 276.24 238.51 270.78 240.43 C 264.01 234.70 257.12 228.70 248.82 225.32 C 247.20 223.71 244.91 223.19 242.88 222.29 C 241.96 221.86 241.02 221.45 240.08 221.07 C 237.16 219.74 234.04 219.00 231.06 217.85 C 222.97 215.35 213.89 214.01 205.93 217.73 C 204.17 218.83 202.24 219.83 201.15 221.70 C 200.81 222.02 200.13 222.68 199.78 223.01 C 198.66 225.21 197.43 227.50 197.58 230.06 C 197.04 237.13 201.77 242.90 204.81 248.84 C 206.75 252.02 207.71 255.69 209.58 258.88 C 209.56 260.00 209.52 261.12 209.47 262.24 C 207.20 262.72 205.53 264.39 203.71 265.70 C 197.88 270.12 192.53 275.31 188.25 281.25 C 183.18 287.39 179.41 294.47 175.69 301.48 C 174.54 304.04 172.90 306.44 172.32 309.23 C 170.31 311.79 169.62 315.12 168.18 318.01 C 166.99 320.24 166.09 322.61 164.84 324.81 C 162.16 328.92 157.63 331.04 154.10 334.14 C 151.66 334.78 150.16 336.91 148.52 338.66 C 148.64 348.78 148.53 358.90 148.55 369.02 C 148.29 373.63 152.32 376.89 155.79 379.21 C 161.87 382.70 168.26 385.63 174.53 388.78 C 175.73 389.56 176.51 390.81 177.39 391.92 C 180.16 398.33 183.53 404.58 188.19 409.84 C 191.23 413.54 194.60 417.04 198.37 420.03 C 199.00 419.55 199.77 419.41 200.49 419.77 L 197.98 420.66 C 202.48 422.74 206.06 426.40 210.56 428.55 C 216.01 431.16 221.97 434.27 224.12 440.36 C 218.54 442.06 212.63 442.48 206.93 443.79 C 199.67 445.65 191.92 447.04 185.74 451.54 C 184.12 452.43 184.42 454.26 184.37 455.80 C 185.37 456.65 186.36 457.51 187.34 458.38 C 195.92 462.75 205.49 464.61 214.88 466.37 C 249.92 472.06 285.51 473.41 320.97 473.45 C 331.30 473.10 341.66 473.71 351.96 472.67 C 364.31 472.47 376.62 471.60 388.91 470.53 C 406.33 468.58 424.13 467.20 440.86 461.64 C 441.42 461.53 442.53 461.32 443.09 461.21 C 444.74 460.51 446.37 459.75 447.96 458.92 C 449.88 457.85 452.72 456.49 452.33 453.85 C 451.10 450.77 447.74 449.42 444.87 448.30 C 435.13 444.51 424.71 442.50 414.36 441.32 C 414.23 433.79 420.74 429.31 425.75 424.82 C 435.44 416.59 443.49 406.49 449.26 395.16 C 459.03 375.99 463.17 354.26 462.41 332.84 C 465.34 331.07 467.82 328.59 469.74 325.76 C 476.34 317.86 478.39 307.00 477.17 296.96 C 475.84 290.16 473.79 283.44 470.35 277.39 C 468.63 274.95 466.15 272.55 462.97 272.49 C 459.68 272.28 457.27 275.28 456.30 278.11 C 455.30 280.96 452.73 284.46 449.26 283.18 C 445.52 281.33 442.91 277.92 440.13 274.92 C 427.00 258.83 408.69 247.42 389.04 241.06 C 387.02 240.02 384.78 239.61 382.59 239.17 C 382.65 237.04 383.27 235.00 384.13 233.07 C 389.77 212.57 380.84 189.01 362.68 177.81 C 353.17 171.35 341.33 168.86 329.96 169.83 C 325.61 170.73 321.15 171.32 317.07 173.17 Z" />
</g>
<g id="#3e3a39ff">
<path fill="#3e3a39" opacity="1.00" d=" M 317.07 173.17 C 321.15 171.32 325.61 170.73 329.96 169.83 C 341.33 168.86 353.17 171.35 362.68 177.81 C 380.84 189.01 389.77 212.57 384.13 233.07 C 383.27 235.00 382.65 237.04 382.59 239.17 C 384.78 239.61 387.02 240.02 389.04 241.06 C 408.69 247.42 427.00 258.83 440.13 274.92 C 442.91 277.92 445.52 281.33 449.26 283.18 C 452.73 284.46 455.30 280.96 456.30 278.11 C 457.27 275.28 459.68 272.28 462.97 272.49 C 466.15 272.55 468.63 274.95 470.35 277.39 C 473.79 283.44 475.84 290.16 477.17 296.96 C 478.39 307.00 476.34 317.86 469.74 325.76 C 467.82 328.59 465.34 331.07 462.41 332.84 C 463.17 354.26 459.03 375.99 449.26 395.16 C 443.49 406.49 435.44 416.59 425.75 424.82 C 420.74 429.31 414.23 433.79 414.36 441.32 C 424.71 442.50 435.13 444.51 444.87 448.30 C 447.74 449.42 451.10 450.77 452.33 453.85 C 452.72 456.49 449.88 457.85 447.96 458.92 C 446.37 459.75 444.74 460.51 443.09 461.21 C 442.53 461.32 441.42 461.53 440.86 461.64 C 424.13 467.20 406.33 468.58 388.91 470.53 C 376.62 471.60 364.31 472.47 351.96 472.67 C 341.66 473.71 331.30 473.10 320.97 473.45 C 285.51 473.41 249.92 472.06 214.88 466.37 C 205.49 464.61 195.92 462.75 187.34 458.38 C 186.36 457.51 185.37 456.65 184.37 455.80 C 184.42 454.26 184.12 452.43 185.74 451.54 C 191.92 447.04 199.67 445.65 206.93 443.79 C 212.63 442.48 218.54 442.06 224.12 440.36 C 221.97 434.27 216.01 431.16 210.56 428.55 C 206.06 426.40 202.48 422.74 197.98 420.66 L 200.49 419.77 C 199.77 419.41 199.00 419.55 198.37 420.03 C 194.60 417.04 191.23 413.54 188.19 409.84 C 183.53 404.58 180.16 398.33 177.39 391.92 C 176.51 390.81 175.73 389.56 174.53 388.78 C 168.26 385.63 161.87 382.70 155.79 379.21 C 152.32 376.89 148.29 373.63 148.55 369.02 C 148.53 358.90 148.64 348.78 148.52 338.66 C 150.16 336.91 151.66 334.78 154.10 334.14 C 157.63 331.04 162.16 328.92 164.84 324.81 C 166.09 322.61 166.99 320.24 168.18 318.01 C 169.62 315.12 170.31 311.79 172.32 309.23 C 172.90 306.44 174.54 304.04 175.69 301.48 C 179.41 294.47 183.18 287.39 188.25 281.25 C 192.53 275.31 197.88 270.12 203.71 265.70 C 205.53 264.39 207.20 262.72 209.47 262.24 C 209.52 261.12 209.56 260.00 209.58 258.88 C 207.71 255.69 206.75 252.02 204.81 248.84 C 201.77 242.90 197.04 237.13 197.58 230.06 C 197.43 227.50 198.66 225.21 199.78 223.01 C 200.13 222.68 200.81 222.02 201.15 221.70 C 202.24 219.83 204.17 218.83 205.93 217.73 C 213.89 214.01 222.97 215.35 231.06 217.85 C 234.04 219.00 237.16 219.74 240.08 221.07 C 241.02 221.45 241.96 221.86 242.88 222.29 C 244.91 223.19 247.20 223.71 248.82 225.32 C 257.12 228.70 264.01 234.70 270.78 240.43 C 276.24 238.51 282.03 237.85 287.59 236.35 C 283.84 224.17 284.16 210.53 289.70 198.93 C 295.02 187.23 305.05 177.74 317.07 173.17 M 323.90 182.84 C 312.68 186.36 303.27 195.14 299.02 206.12 C 295.66 215.14 295.49 225.53 299.43 234.40 C 302.65 243.58 310.25 250.82 318.73 255.27 C 325.39 256.22 332.23 255.12 338.92 256.12 C 343.26 256.13 348.03 257.53 352.00 255.18 C 361.96 250.36 370.61 241.10 372.53 230.04 C 373.91 228.04 373.85 225.38 374.21 223.05 C 375.71 206.93 365.78 190.61 350.88 184.38 C 342.44 180.68 332.71 180.25 323.90 182.84 M 210.92 227.92 C 210.79 228.36 210.54 229.22 210.41 229.65 L 209.44 229.48 C 209.29 233.01 211.51 235.91 213.06 238.90 C 217.88 247.90 223.44 257.62 222.47 268.19 C 214.86 271.91 207.33 276.23 201.72 282.71 C 191.04 294.46 185.16 309.43 178.55 323.63 C 174.89 331.48 169.46 338.99 161.58 343.00 C 160.86 351.39 161.54 359.83 161.30 368.23 C 168.22 372.74 176.13 375.51 183.01 380.09 C 187.15 383.55 188.80 388.94 191.50 393.45 C 196.41 402.52 203.95 409.97 212.49 415.66 C 218.22 419.54 225.31 421.63 229.86 427.12 C 235.08 432.80 237.08 440.53 238.86 447.83 C 239.25 448.27 240.04 449.13 240.43 449.57 C 252.93 449.94 265.44 449.59 277.95 449.74 C 279.95 449.59 282.96 450.33 283.56 447.67 C 285.69 443.97 285.53 437.19 290.89 436.66 C 300.21 438.04 309.67 437.41 319.07 437.41 C 328.73 436.40 338.49 436.08 348.01 433.93 C 349.92 433.34 352.22 433.70 353.36 435.50 C 355.20 439.91 355.84 444.77 357.97 449.06 C 359.77 450.04 362.00 449.63 363.98 449.76 C 375.72 449.53 387.48 450.02 399.20 449.51 C 402.42 441.66 402.24 432.46 407.63 425.53 C 412.84 419.47 419.34 414.73 424.92 409.06 C 437.26 395.82 444.73 378.67 448.39 361.10 C 448.68 359.12 448.66 357.13 448.70 355.14 C 448.90 355.77 449.11 356.40 449.33 357.03 C 449.52 352.03 450.40 347.07 450.30 342.06 C 449.00 342.27 447.72 342.50 446.43 342.72 L 446.20 343.54 C 443.30 342.70 440.26 341.48 438.98 338.51 C 439.15 336.80 439.16 335.08 439.53 333.40 C 441.88 330.25 445.90 329.26 449.11 327.28 C 454.16 324.19 459.65 320.95 462.28 315.37 C 466.28 308.49 465.92 300.17 464.05 292.69 L 463.73 293.87 C 463.56 292.48 463.35 291.10 463.10 289.73 C 460.18 293.62 456.12 297.14 451.03 297.39 C 443.98 298.17 438.14 292.88 434.51 287.40 C 422.80 270.58 404.84 258.99 385.62 252.52 C 382.53 251.52 379.48 250.17 376.16 250.25 C 373.86 253.72 370.67 256.41 367.79 259.37 C 371.81 260.10 376.28 260.96 378.71 264.63 C 378.51 266.36 378.87 268.36 377.71 269.84 C 375.93 272.81 372.05 273.33 368.91 273.01 C 345.93 268.32 322.10 267.19 298.90 270.99 C 296.24 271.71 293.48 271.60 290.75 271.56 C 288.63 270.19 286.56 268.65 285.41 266.32 C 285.45 263.71 287.05 261.33 289.21 259.95 C 292.32 258.27 295.97 258.34 299.41 258.15 C 299.51 257.66 299.70 256.70 299.79 256.22 C 296.92 253.75 294.98 250.44 292.45 247.70 C 283.81 249.38 275.27 251.48 266.76 253.66 C 263.30 250.60 260.31 247.01 256.58 244.27 C 246.53 236.31 234.59 230.84 222.11 228.00 C 218.44 227.27 214.59 227.18 210.92 227.92 Z" />
</g>
<g id="#f29100ff">
<path fill="#f29100" opacity="1.00" d=" M 323.90 182.84 C 332.71 180.25 342.44 180.68 350.88 184.38 C 365.78 190.61 375.71 206.93 374.21 223.05 C 373.85 225.38 373.91 228.04 372.53 230.04 C 368.72 233.06 365.82 237.09 361.79 239.84 C 356.95 243.42 351.12 245.20 345.81 247.94 C 343.55 249.14 341.20 250.17 338.77 250.99 C 338.53 249.96 338.29 248.93 338.06 247.90 C 335.20 247.46 332.60 248.50 330.70 250.64 C 324.46 248.65 318.45 246.00 312.44 243.45 C 307.45 241.36 304.43 236.45 299.43 234.40 C 295.49 225.53 295.66 215.14 299.02 206.12 C 303.27 195.14 312.68 186.36 323.90 182.84 M 322.59 195.56 C 320.63 197.54 320.81 200.51 320.57 203.07 C 319.66 213.74 318.70 224.40 317.81 235.06 C 317.59 240.55 325.68 243.08 328.75 238.55 C 330.85 234.54 329.92 229.73 330.41 225.37 C 333.84 230.39 337.16 235.49 340.62 240.50 C 342.08 242.76 345.26 243.67 347.71 242.58 C 351.08 241.29 352.73 236.55 350.32 233.66 C 347.83 230.20 345.08 226.94 342.54 223.52 C 346.71 222.35 350.91 219.89 352.48 215.63 C 354.55 209.87 353.65 202.42 348.48 198.55 C 342.97 194.23 335.61 195.14 329.11 194.13 C 326.87 193.74 324.31 193.92 322.59 195.56 Z" />
</g>
<g id="#3d3c3aff">
<path fill="#3d3c3a" opacity="1.00" d=" M 322.59 195.56 C 324.31 193.92 326.87 193.74 329.11 194.13 C 335.61 195.14 342.97 194.23 348.48 198.55 C 353.65 202.42 354.55 209.87 352.48 215.63 C 350.91 219.89 346.71 222.35 342.54 223.52 C 345.08 226.94 347.83 230.20 350.32 233.66 C 352.73 236.55 351.08 241.29 347.71 242.58 C 345.26 243.67 342.08 242.76 340.62 240.50 C 337.16 235.49 333.84 230.39 330.41 225.37 C 329.92 229.73 330.85 234.54 328.75 238.55 C 325.68 243.08 317.59 240.55 317.81 235.06 C 318.70 224.40 319.66 213.74 320.57 203.07 C 320.81 200.51 320.63 197.54 322.59 195.56 M 332.35 205.99 C 332.17 208.50 331.95 211.01 331.70 213.53 C 334.11 213.95 336.56 214.06 339.00 214.09 C 340.97 212.60 341.61 209.83 340.44 207.65 C 338.25 205.66 335.06 206.17 332.35 205.99 Z" />
</g>
<g id="#f49100ff">
<path fill="#f49100" opacity="1.00" d=" M 332.35 205.99 C 335.06 206.17 338.25 205.66 340.44 207.65 C 341.61 209.83 340.97 212.60 339.00 214.09 C 336.56 214.06 334.11 213.95 331.70 213.53 C 331.95 211.01 332.17 208.50 332.35 205.99 Z" />
</g>
<g id="#ea5a9dff">
<path fill="#ea5a9d" opacity="1.00" d=" M 210.92 227.92 C 214.59 227.18 218.44 227.27 222.11 228.00 C 234.59 230.84 246.53 236.31 256.58 244.27 C 260.31 247.01 263.30 250.60 266.76 253.66 C 261.84 255.23 255.28 258.97 251.16 253.87 C 240.08 242.46 226.76 231.59 210.41 229.65 C 210.54 229.22 210.79 228.36 210.92 227.92 Z" />
<path fill="#ea5a9d" opacity="1.00" d=" M 463.73 293.87 L 464.05 292.69 C 465.92 300.17 466.28 308.49 462.28 315.37 C 459.65 320.95 454.16 324.19 449.11 327.28 C 445.90 329.26 441.88 330.25 439.53 333.40 C 439.16 335.08 439.15 336.80 438.98 338.51 C 436.18 332.93 437.96 325.75 442.17 321.36 C 446.46 317.21 451.94 314.47 455.85 309.88 C 460.21 305.58 462.30 299.68 463.73 293.87 Z" />
</g>
<g id="#ee7eaeff">
<path fill="#ee7eae" opacity="1.00" d=" M 209.44 229.48 L 210.41 229.65 C 226.76 231.59 240.08 242.46 251.16 253.87 C 255.28 258.97 261.84 255.23 266.76 253.66 C 275.27 251.48 283.81 249.38 292.45 247.70 C 294.98 250.44 296.92 253.75 299.79 256.22 C 299.70 256.70 299.51 257.66 299.41 258.15 C 295.97 258.34 292.32 258.27 289.21 259.95 C 287.05 261.33 285.45 263.71 285.41 266.32 C 285.33 268.85 285.43 271.74 287.49 273.54 C 290.56 276.80 295.45 275.67 299.40 275.36 C 320.52 272.36 342.36 271.28 363.20 276.72 C 367.80 277.77 372.88 279.47 377.43 277.36 C 382.12 275.11 381.83 268.09 378.71 264.63 C 376.28 260.96 371.81 260.10 367.79 259.37 C 370.67 256.41 373.86 253.72 376.16 250.25 C 379.48 250.17 382.53 251.52 385.62 252.52 C 404.84 258.99 422.80 270.58 434.51 287.40 C 438.14 292.88 443.98 298.17 451.03 297.39 C 456.12 297.14 460.18 293.62 463.10 289.73 C 463.35 291.10 463.56 292.48 463.73 293.87 C 462.30 299.68 460.21 305.58 455.85 309.88 C 451.94 314.47 446.46 317.21 442.17 321.36 C 437.96 325.75 436.18 332.93 438.98 338.51 C 440.26 341.48 443.30 342.70 446.20 343.54 C 444.78 348.12 443.95 352.87 442.37 357.41 C 437.27 370.93 428.51 383.30 416.43 391.43 C 389.48 410.12 356.43 418.15 324.02 419.59 C 289.68 420.98 254.50 415.76 223.37 400.69 C 210.43 393.98 197.92 385.76 188.63 374.35 C 185.40 370.15 180.20 368.52 175.58 366.40 C 170.79 364.32 166.58 361.18 161.85 359.01 C 161.59 362.08 161.41 365.15 161.30 368.23 C 161.54 359.83 160.86 351.39 161.58 343.00 C 169.46 338.99 174.89 331.48 178.55 323.63 C 185.16 309.43 191.04 294.46 201.72 282.71 C 207.33 276.23 214.86 271.91 222.47 268.19 C 223.44 257.62 217.88 247.90 213.06 238.90 C 211.51 235.91 209.29 233.01 209.44 229.48 M 202.96 307.43 C 198.17 309.05 194.07 313.73 194.54 319.00 C 194.30 322.13 196.30 324.76 198.20 327.02 C 198.85 331.27 204.51 331.71 208.01 331.75 C 212.98 332.15 217.15 328.46 219.25 324.28 C 220.55 319.99 220.74 314.84 217.89 311.11 C 215.48 308.19 211.96 305.79 208.00 306.20 C 206.38 306.48 203.80 305.53 202.96 307.43 Z" />
</g>
<g id="#e18205ff">
<path fill="#e18205" opacity="1.00" d=" M 361.79 239.84 C 365.82 237.09 368.72 233.06 372.53 230.04 C 370.61 241.10 361.96 250.36 352.00 255.18 C 348.03 257.53 343.26 256.13 338.92 256.12 C 332.23 255.12 325.39 256.22 318.73 255.27 C 310.25 250.82 302.65 243.58 299.43 234.40 C 304.43 236.45 307.45 241.36 312.44 243.45 C 318.45 246.00 324.46 248.65 330.70 250.64 C 332.60 248.50 335.20 247.46 338.06 247.90 C 338.29 248.93 338.53 249.96 338.77 250.99 C 341.20 250.17 343.55 249.14 345.81 247.94 C 351.12 245.20 356.95 243.42 361.79 239.84 Z" />
</g>
<g id="#eb5a9eff">
<path fill="#eb5a9e" opacity="1.00" d=" M 378.71 264.63 C 381.83 268.09 382.12 275.11 377.43 277.36 C 372.88 279.47 367.80 277.77 363.20 276.72 C 342.36 271.28 320.52 272.36 299.40 275.36 C 295.45 275.67 290.56 276.80 287.49 273.54 C 285.43 271.74 285.33 268.85 285.41 266.32 C 286.56 268.65 288.63 270.19 290.75 271.56 C 293.48 271.60 296.24 271.71 298.90 270.99 C 322.10 267.19 345.93 268.32 368.91 273.01 C 372.05 273.33 375.93 272.81 377.71 269.84 C 378.87 268.36 378.51 266.36 378.71 264.63 Z" />
</g>
<g id="#ec5999ff">
<path fill="#ec5999" opacity="1.00" d=" M 202.96 307.43 C 203.80 305.53 206.38 306.48 208.00 306.20 C 211.96 305.79 215.48 308.19 217.89 311.11 C 220.74 314.84 220.55 319.99 219.25 324.28 C 217.15 328.46 212.98 332.15 208.01 331.75 C 204.51 331.71 198.85 331.27 198.20 327.02 C 202.41 330.28 208.94 330.75 212.99 327.01 C 218.26 322.75 218.10 313.46 212.43 309.60 C 209.90 307.11 206.22 307.30 202.96 307.43 Z" />
</g>
<g id="#3e3938ff">
<path fill="#3e3938" opacity="1.00" d=" M 194.54 319.00 C 194.07 313.73 198.17 309.05 202.96 307.43 C 206.22 307.30 209.90 307.11 212.43 309.60 C 218.10 313.46 218.26 322.75 212.99 327.01 C 208.94 330.75 202.41 330.28 198.20 327.02 C 196.30 324.76 194.30 322.13 194.54 319.00 Z" />
</g>
<g id="#ea5b9dff">
<path fill="#ea5b9d" opacity="1.00" d=" M 446.43 342.72 C 447.72 342.50 449.00 342.27 450.30 342.06 C 450.40 347.07 449.52 352.03 449.33 357.03 C 449.11 356.40 448.90 355.77 448.70 355.14 C 448.66 357.13 448.68 359.12 448.39 361.10 C 444.73 378.67 437.26 395.82 424.92 409.06 C 419.34 414.73 412.84 419.47 407.63 425.53 C 402.24 432.46 402.42 441.66 399.20 449.51 C 387.48 450.02 375.72 449.53 363.98 449.76 C 362.00 449.63 359.77 450.04 357.97 449.06 C 355.84 444.77 355.20 439.91 353.36 435.50 C 352.22 433.70 349.92 433.34 348.01 433.93 C 338.49 436.08 328.73 436.40 319.07 437.41 C 309.67 437.41 300.21 438.04 290.89 436.66 C 285.53 437.19 285.69 443.97 283.56 447.67 C 282.96 450.33 279.95 449.59 277.95 449.74 C 265.44 449.59 252.93 449.94 240.43 449.57 C 240.04 449.13 239.25 448.27 238.86 447.83 C 237.08 440.53 235.08 432.80 229.86 427.12 C 225.31 421.63 218.22 419.54 212.49 415.66 C 203.95 409.97 196.41 402.52 191.50 393.45 C 188.80 388.94 187.15 383.55 183.01 380.09 C 176.13 375.51 168.22 372.74 161.30 368.23 C 161.41 365.15 161.59 362.08 161.85 359.01 C 166.58 361.18 170.79 364.32 175.58 366.40 C 180.20 368.52 185.40 370.15 188.63 374.35 C 197.92 385.76 210.43 393.98 223.37 400.69 C 254.50 415.76 289.68 420.98 324.02 419.59 C 356.43 418.15 389.48 410.12 416.43 391.43 C 428.51 383.30 437.27 370.93 442.37 357.41 C 443.95 352.87 444.78 348.12 446.20 343.54 L 446.43 342.72 Z" />
</g>
</svg>
